<svg width="961" height="914" viewBox="0 0 961 914" fill="none" xmlns="http://www.w3.org/2000/svg">
<path d="M380.801 0.0732638C425.685 0.00159489 417.424 -0.0455763 462.308 0.0689985C464.06 0.0717943 465.812 0.0710277 467.565 0.0663144C484.133 0.0258812 498.815 1.41622 511.578 13.2356C523.342 25.9813 524.812 41.0231 524.707 57.6674C524.707 58.9755 524.708 60.2835 524.708 61.6313C524.707 65.1749 524.696 68.7182 524.681 72.2617C524.554 107.457 524.567 110.766 524.466 145.961C526.28 145.955 526.28 145.955 528.13 145.949C571.883 145.809 615.635 145.79 659.388 145.64C671.825 145.598 684.262 145.571 696.699 145.561C703.279 145.556 709.858 145.543 716.437 145.512C722.644 145.483 728.85 145.474 735.056 145.48C737.321 145.479 739.586 145.471 741.85 145.454C759.37 145.333 775.52 147.298 791.982 153.667C793.228 154.141 793.228 154.141 794.5 154.625C808.388 160.057 820.201 167.262 831.641 176.784C832.539 177.532 833.438 178.28 834.364 179.051C859.693 200.871 875.91 233.728 878.756 266.94C879.232 276.534 879.166 286.124 879.054 295.726C879.014 299.822 879.011 303.919 879.003 308.016C878.984 315.724 878.932 323.432 878.867 331.14C878.795 339.937 878.761 348.733 878.729 357.53C878.663 375.58 878.551 393.629 878.408 411.678C879.043 411.666 879.678 411.654 880.332 411.642C887.006 411.524 887.303 411.444 893.977 411.386C896.461 411.36 898.944 411.323 901.427 411.277C919.18 410.955 933.26 411.015 947.334 423.195C950.932 426.813 953.581 430.58 955.999 435.061C956.656 436.198 956.656 436.198 957.327 437.357C962.038 446.893 961.625 458.565 959.387 468.753C955.619 479.809 947.533 489.785 936.971 495.059C935.374 495.711 935.374 495.711 933.744 496.375C932.152 497.039 932.152 497.039 930.527 497.716C923.598 500.115 916.85 500.038 909.605 500C908.529 499.998 907.453 499.997 906.344 499.995C902.922 499.989 899.5 499.976 896.078 499.963C893.752 499.957 891.425 499.952 889.099 499.948C883.409 499.936 884.097 499.918 878.408 499.896C878.411 500.635 878.414 501.375 878.417 502.136C878.487 520.202 878.54 538.267 878.573 556.332C878.589 565.069 878.612 573.806 878.648 582.542C878.68 590.165 878.701 597.788 878.708 605.411C878.712 609.44 878.721 613.469 878.745 617.498C878.855 637.268 878.865 656.313 871.964 675.136C871.648 676.012 871.332 676.888 871.006 677.79C857.799 713.019 832.877 738.769 799.134 754.887C795.113 756.703 791.04 758.273 786.866 759.701C786.184 759.937 785.501 760.174 784.798 760.418C768.812 765.486 752.771 766.075 736.154 766.011C733.853 766.014 731.551 766.018 729.25 766.024C722.971 766.035 716.693 766.026 710.414 766.014C703.625 766.005 696.836 766.014 690.047 766.021C677.533 766.03 665.018 766.025 652.504 766.013C640.941 766.002 629.379 765.997 617.817 765.998C617.048 765.998 616.28 765.999 615.488 765.999C612.368 765.999 609.247 765.999 606.127 766C576.891 766.004 547.655 765.991 518.419 765.969C492.472 765.949 466.524 765.943 440.577 765.949C438.91 765.949 437.244 765.949 435.577 765.95C434.753 765.95 433.929 765.95 433.081 765.95C428.933 765.951 424.785 765.952 420.637 765.953C419.818 765.953 419 765.953 418.157 765.953C396.443 765.958 374.729 765.952 353.014 765.943C350.677 765.942 348.339 765.941 346.002 765.94C344.451 765.939 342.9 765.939 341.35 765.938C330.561 765.933 319.771 765.933 308.982 765.935C295.077 765.937 281.171 765.933 267.265 765.917C260.564 765.909 253.863 765.905 247.162 765.909C241.022 765.914 234.881 765.908 228.741 765.895C226.526 765.892 224.311 765.892 222.096 765.897C206.338 765.925 191.081 765.426 175.904 760.697C175.013 760.424 174.122 760.15 173.204 759.869C138.497 748.743 111.127 723.503 94.5095 691.547C91.6655 685.85 89.2144 680.098 87.1531 674.074C86.9164 673.391 86.6797 672.708 86.4359 672.005C85.6635 669.569 85.0438 667.122 84.4295 664.641C84.1599 663.56 83.8904 662.48 83.6127 661.366C80.376 646.087 80.8271 630.659 80.9175 615.122C80.9377 611.059 80.9393 606.997 80.9431 602.934C80.9529 595.27 80.979 587.607 81.0111 579.944C81.047 571.207 81.0644 562.47 81.0803 553.732C81.1135 535.787 81.1695 517.841 81.2408 499.896C80.368 499.907 80.368 499.907 79.4776 499.917C73.3553 499.989 74.6734 500.036 68.5507 500.071C66.2737 500.087 63.9967 500.109 61.7198 500.137C42.1759 500.369 26.9052 500.188 11.8873 486.345C2.93725 477.038 -0.018994 465.636 9.17218e-05 453.097C0.287296 441.331 5.1518 431.838 13.2159 423.37C22.8752 414.212 34.5266 410.839 47.5771 411.159C48.7622 411.167 49.9474 411.174 51.1684 411.182C54.9046 411.211 58.6389 411.278 62.3745 411.346C64.9279 411.373 67.4813 411.397 70.0348 411.419C76.2508 411.477 75.0256 411.565 81.2408 411.678C81.2369 410.93 81.233 410.182 81.2289 409.411C81.1346 391.114 81.0645 372.817 81.0205 354.52C80.9987 345.672 80.969 336.823 80.9201 327.975C80.8774 320.253 80.8502 312.531 80.8408 304.809C80.8353 300.729 80.8226 296.649 80.7913 292.569C80.4854 251.052 89.9352 215.656 118.903 184.785C123.43 180.326 128.266 176.373 133.322 172.533C134.136 171.903 134.95 171.272 135.789 170.623C161.004 151.99 189.335 145.256 220.158 145.479C222.517 145.48 224.876 145.479 227.235 145.477C233.578 145.475 239.921 145.5 246.264 145.53C252.916 145.557 259.567 145.559 266.219 145.564C277.363 145.576 288.508 145.602 299.652 145.64C311.121 145.68 322.589 145.71 334.058 145.728C335.122 145.729 335.122 145.729 336.207 145.731C339.767 145.737 343.326 145.742 346.885 145.747C376.318 145.792 405.75 145.869 435.183 145.961C435.183 116.498 435.183 118.922 435.183 88.5663C397.411 88.7545 412.783 89.0662 375.01 89.049C373.754 89.0643 372.498 89.0796 371.204 89.0953C356.027 89.0207 344.068 83.8636 333.411 73.1548C325.341 63.6999 322.597 52.6679 323.069 40.3927C324.684 28.035 330.572 18.7372 339.324 10.1798C352.483 0.89128 365.241 0.0314676 380.801 0.0732638ZM180.214 249.076C171.114 260.691 169.142 271.623 169.176 286.102C169.172 287.611 169.168 289.12 169.162 290.629C169.149 294.767 169.149 298.904 169.152 303.042C169.152 307.508 169.14 311.974 169.13 316.44C169.113 325.187 169.107 333.934 169.105 342.681C169.104 349.794 169.1 356.907 169.093 364.02C169.075 384.198 169.065 404.375 169.066 424.553C169.067 425.641 169.067 426.728 169.067 427.848C169.067 428.937 169.067 430.026 169.067 431.148C169.068 448.785 169.047 466.421 169.018 484.058C168.987 502.179 168.972 520.299 168.974 538.42C168.975 548.589 168.969 558.757 168.946 568.926C168.927 577.586 168.922 586.246 168.937 594.906C168.944 599.32 168.944 603.735 168.925 608.149C168.908 612.199 168.912 616.248 168.93 620.297C168.935 622.439 168.919 624.581 168.902 626.723C169.016 641.932 173.235 654.124 183.477 665.371C193.357 674.749 205.154 677.737 218.392 677.668C219.775 677.674 219.775 677.674 221.186 677.68C224.265 677.69 227.345 677.684 230.424 677.679C232.658 677.683 234.893 677.688 237.127 677.694C243.259 677.707 249.392 677.707 255.524 677.704C262.14 677.704 268.757 677.715 275.374 677.725C288.334 677.743 301.294 677.749 314.254 677.75C324.789 677.751 335.323 677.756 345.858 677.762C348.893 677.764 351.927 677.766 354.961 677.768C356.093 677.769 356.093 677.769 357.247 677.769C378.462 677.782 399.676 677.791 420.89 677.79C422.089 677.79 422.089 677.79 423.313 677.79C427.365 677.79 431.417 677.789 435.47 677.789C436.275 677.789 437.079 677.789 437.908 677.789C439.536 677.789 441.163 677.789 442.791 677.789C468.109 677.788 493.427 677.803 518.745 677.833C547.202 677.865 575.658 677.884 604.114 677.882C607.15 677.881 610.186 677.881 613.221 677.881C614.342 677.881 614.343 677.881 615.486 677.881C627.502 677.881 639.517 677.895 651.533 677.913C663.614 677.931 675.694 677.933 687.775 677.919C694.317 677.912 700.858 677.912 707.399 677.93C713.392 677.947 719.384 677.944 725.377 677.926C727.541 677.922 729.704 677.926 731.868 677.938C747.652 678.019 761.449 677.148 774.245 666.766C774.909 666.233 775.574 665.7 776.258 665.151C784.659 657.629 789.687 646.083 790.386 634.897C790.468 631 790.481 627.109 790.472 623.211C790.476 621.701 790.481 620.19 790.487 618.679C790.5 614.542 790.5 610.405 790.497 606.268C790.497 601.8 790.508 597.333 790.518 592.865C790.536 584.118 790.542 575.371 790.543 566.623C790.544 559.511 790.549 552.399 790.555 545.286C790.574 525.11 790.584 504.933 790.582 484.756C790.582 483.669 790.582 482.582 790.582 481.461C790.582 480.373 790.582 479.285 790.582 478.163C790.581 460.526 790.601 442.888 790.631 425.251C790.662 407.129 790.676 389.007 790.674 370.885C790.674 360.716 790.68 350.547 790.702 340.378C790.722 331.719 790.726 323.06 790.712 314.402C790.705 309.987 790.705 305.573 790.723 301.158C790.74 297.11 790.737 293.063 790.719 289.015C790.714 286.871 790.73 284.727 790.747 282.584C790.642 268.662 786.946 257.27 777.433 246.934C766.196 237.182 756.16 234.009 741.463 234.037C740.537 234.034 739.611 234.032 738.658 234.029C735.553 234.022 732.449 234.022 729.345 234.023C727.098 234.019 724.85 234.015 722.603 234.011C716.426 234 710.248 233.996 704.071 233.993C697.409 233.989 690.748 233.979 684.086 233.97C668.761 233.95 653.435 233.939 638.109 233.93C630.534 233.926 622.959 233.92 615.384 233.914C589.448 233.895 563.512 233.879 537.576 233.872C535.948 233.871 534.321 233.871 532.693 233.87C531.886 233.87 531.079 233.87 530.248 233.869C526.159 233.868 522.07 233.867 517.981 233.865C517.169 233.865 516.358 233.865 515.522 233.865C489.207 233.856 462.892 233.831 436.578 233.797C408.748 233.76 380.919 233.739 353.09 233.736C350.034 233.735 346.979 233.735 343.924 233.734C343.171 233.734 342.419 233.734 341.644 233.734C329.543 233.732 317.442 233.715 305.341 233.693C293.176 233.672 281.012 233.666 268.848 233.676C262.259 233.681 255.671 233.679 249.082 233.658C243.049 233.639 237.016 233.64 230.983 233.657C228.802 233.659 226.621 233.655 224.44 233.642C206.93 233.547 192.845 235.554 180.214 249.076Z" fill="url(#paint0_linear_1_45)"/>
<path d="M682.575 441.108C692.932 448.738 699.39 458.59 702.077 471.101C702.859 478.769 702.681 486.505 702.646 494.202C702.649 496.44 702.653 498.677 702.658 500.914C702.664 505.585 702.655 510.256 702.635 514.927C702.611 520.883 702.625 526.839 702.651 532.796C702.666 537.411 702.661 542.025 702.65 546.64C702.647 548.835 702.651 551.03 702.661 553.225C702.725 571.365 700.646 585.336 688.028 599.288C679.863 607.012 668.469 611.201 657.32 611.635C644.685 611.309 633.998 606.28 624.739 597.894C615.508 588.234 611.836 576.04 611.85 563.064C611.843 562.089 611.836 561.114 611.828 560.109C611.808 556.901 611.804 553.692 611.802 550.483C611.795 548.239 611.788 545.994 611.78 543.749C611.767 539.046 611.763 534.344 611.765 529.641C611.765 523.643 611.736 517.645 611.699 511.646C611.675 507.009 611.671 502.372 611.672 497.734C611.669 495.525 611.66 493.315 611.643 491.105C611.525 473.766 612.629 460.086 625.006 446.672C641.785 431.662 663.316 429.003 682.575 441.108Z" fill="url(#paint1_linear_1_45)"/>
<path d="M416.564 441.108C426.809 448.738 433.196 458.59 435.854 471.101C436.628 478.769 436.451 486.505 436.417 494.202C436.419 496.44 436.424 498.677 436.429 500.914C436.435 505.585 436.426 510.256 436.406 514.927C436.382 520.883 436.396 526.839 436.421 532.796C436.437 537.411 436.432 542.025 436.421 546.64C436.418 548.835 436.421 551.03 436.431 553.225C436.495 571.365 434.438 585.336 421.957 599.288C413.882 607.012 402.611 611.201 391.583 611.635C379.085 611.309 368.515 606.28 359.356 597.894C350.226 588.234 346.594 576.04 346.608 563.064C346.601 562.089 346.594 561.114 346.586 560.109C346.566 556.901 346.562 553.692 346.56 550.483C346.553 548.239 346.546 545.994 346.539 543.749C346.526 539.046 346.522 534.344 346.523 529.641C346.523 523.643 346.495 517.645 346.458 511.646C346.434 507.009 346.43 502.372 346.431 497.734C346.429 495.525 346.42 493.315 346.403 491.105C346.286 473.766 347.378 460.086 359.621 446.672C376.217 431.662 397.515 429.003 416.564 441.108Z" fill="url(#paint2_linear_1_45)"/>
<path d="M436.458 831.349C436.458 820.417 445.32 811.555 456.252 811.555H505.737C516.669 811.555 525.531 820.417 525.531 831.349V877.865C525.531 888.797 516.669 897.659 505.737 897.659H456.252C445.32 897.659 436.458 888.797 436.458 877.865V831.349Z" fill="url(#paint3_linear_1_45)"/>
<path d="M505.737 896.669V897.659H456.252V896.669H505.737ZM524.542 877.865V831.349C524.542 820.964 516.123 812.545 505.737 812.545H456.252C446.029 812.545 437.711 820.703 437.454 830.864L437.448 831.349V877.865C437.448 888.25 445.867 896.669 456.252 896.669V897.659L455.741 897.652C445.045 897.381 436.458 888.626 436.458 877.865V831.349C436.458 820.417 445.32 811.555 456.252 811.555H505.737C516.669 811.555 525.531 820.417 525.531 831.349V877.865C525.531 888.626 516.944 897.381 506.249 897.652L505.737 897.659V896.669C516.123 896.669 524.542 888.25 524.542 877.865Z" fill="url(#paint4_linear_1_45)"/>
<path d="M544.336 815.514C544.336 804.582 553.198 795.72 564.13 795.72H643.306C654.238 795.72 663.1 804.582 663.1 815.514V893.7C663.1 904.632 654.238 913.494 643.306 913.494H564.13C553.198 913.494 544.336 904.632 544.336 893.7V815.514Z" fill="url(#paint5_linear_1_45)"/>
<path d="M643.306 912.505V913.494H564.13V912.505H643.306ZM662.11 893.7V815.514C662.11 805.129 653.691 796.71 643.306 796.71H564.13C553.744 796.71 545.325 805.129 545.325 815.514V893.7C545.325 904.086 553.744 912.505 564.13 912.505V913.494C553.369 913.494 544.614 904.907 544.343 894.212L544.336 893.7V815.514C544.336 804.582 553.198 795.72 564.13 795.72H643.306L643.817 795.727C654.513 795.998 663.1 804.753 663.1 815.514V893.7C663.1 904.461 654.513 913.216 643.817 913.488L643.306 913.494V912.505C653.691 912.505 662.11 904.086 662.11 893.7Z" fill="url(#paint6_linear_1_45)"/>
<path d="M296.91 815.514C296.91 804.582 305.772 795.72 316.704 795.72H395.881C406.812 795.72 415.675 804.582 415.675 815.514V893.7C415.675 904.632 406.812 913.494 395.881 913.494H316.704C305.772 913.494 296.91 904.632 296.91 893.7V815.514Z" fill="url(#paint7_linear_1_45)"/>
<path d="M395.881 912.505V913.494H316.704V912.505H395.881ZM414.685 893.7V815.514C414.685 805.129 406.266 796.71 395.881 796.71H316.704C306.319 796.71 297.9 805.129 297.9 815.514V893.7C297.9 904.086 306.319 912.505 316.704 912.505V913.494C305.943 913.494 297.188 904.907 296.917 894.212L296.91 893.7V815.514C296.91 804.582 305.772 795.72 316.704 795.72H395.881L396.392 795.727C407.087 795.998 415.675 804.753 415.675 815.514V893.7C415.675 904.461 407.087 913.216 396.392 913.488L395.881 913.494V912.505C406.266 912.505 414.685 904.086 414.685 893.7Z" fill="url(#paint8_linear_1_45)"/>
<defs>
<linearGradient id="paint0_linear_1_45" x1="651.5" y1="445" x2="511" y2="827" gradientUnits="userSpaceOnUse">
<stop stop-color="#FF8001"/>
<stop offset="1" stop-color="#BC3C00"/>
</linearGradient>
<linearGradient id="paint1_linear_1_45" x1="651.5" y1="445" x2="511" y2="827" gradientUnits="userSpaceOnUse">
<stop stop-color="#FF8001"/>
<stop offset="1" stop-color="#BC3C00"/>
</linearGradient>
<linearGradient id="paint2_linear_1_45" x1="651.5" y1="445" x2="511" y2="827" gradientUnits="userSpaceOnUse">
<stop stop-color="#FF8001"/>
<stop offset="1" stop-color="#BC3C00"/>
</linearGradient>
<linearGradient id="paint3_linear_1_45" x1="651.5" y1="445" x2="511" y2="827" gradientUnits="userSpaceOnUse">
<stop stop-color="#FF8001"/>
<stop offset="1" stop-color="#BC3C00"/>
</linearGradient>
<linearGradient id="paint4_linear_1_45" x1="651.5" y1="445" x2="511" y2="827" gradientUnits="userSpaceOnUse">
<stop stop-color="#FF8001"/>
<stop offset="1" stop-color="#BC3C00"/>
</linearGradient>
<linearGradient id="paint5_linear_1_45" x1="651.5" y1="445" x2="511" y2="827" gradientUnits="userSpaceOnUse">
<stop stop-color="#FF8001"/>
<stop offset="1" stop-color="#BC3C00"/>
</linearGradient>
<linearGradient id="paint6_linear_1_45" x1="651.5" y1="445" x2="511" y2="827" gradientUnits="userSpaceOnUse">
<stop stop-color="#FF8001"/>
<stop offset="1" stop-color="#BC3C00"/>
</linearGradient>
<linearGradient id="paint7_linear_1_45" x1="651.5" y1="445" x2="511" y2="827" gradientUnits="userSpaceOnUse">
<stop stop-color="#FF8001"/>
<stop offset="1" stop-color="#BC3C00"/>
</linearGradient>
<linearGradient id="paint8_linear_1_45" x1="651.5" y1="445" x2="511" y2="827" gradientUnits="userSpaceOnUse">
<stop stop-color="#FF8001"/>
<stop offset="1" stop-color="#BC3C00"/>
</linearGradient>
</defs>
</svg>
